<svg xmlns="http://www.w3.org/2000/svg" xmlns:xlink="http://www.w3.org/1999/xlink" id="Capa_1" x="0px" y="0px" viewBox="0 0 380 540" style="enable-background:new 0 0 380 540;" xml:space="preserve"><style type="text/css">	.st0{fill:#000000;}</style><g>	<g>		<path class="st0" d="M79,204H8.5V104c0-34.7,26-64.1,60.4-68.4L79,34.3V204z M26.5,186H61V55.8C40.8,62.7,26.5,81.9,26.5,104V186z   " fill="#000000"/>	</g>	<g>		<path class="st0" d="M79,324H8.5V216H79V324z M26.5,306H61v-72H26.5V306z" fill="#000000"/>	</g>	<g>		<path class="st0" d="M371.5,204H301V34.3l10.1,1.3c34.4,4.3,60.4,33.7,60.4,68.4V204z M319,186h34.5v-82   c0-22.1-14.3-41.3-34.5-48.2V186z" fill="#000000"/>	</g>	<g>		<path class="st0" d="M371.5,324H301V216h70.5V324z M319,306h34.5v-72H319V306z" fill="#000000"/>	</g>	<g>		<path class="st0" d="M289,535h-93V427h93V535z M214,517h57v-72h-57V517z" fill="#000000"/>	</g>	<g>		<path class="st0" d="M184,535H91V427h93V535z M109,517h57v-72h-57V517z" fill="#000000"/>	</g>	<g>		<path class="st0" d="M289,234h-93v-48h93V234z M214,216h57v-12h-57V216z" fill="#000000"/>	</g>	<g>		<path class="st0" d="M184,234H91v-48h93V234z M109,216h57v-12h-57V216z" fill="#000000"/>	</g>	<g>		<path class="st0" d="M289,415h-93V309h-12v106H91V246h198V415z M214,397h57V264H109v133h57V291h48V397z" fill="#000000"/>	</g>	<g>		<path class="st0" d="M289,174h-93V5h55.5v30H289V174z M214,156h57V53h-37.5V23H214V156z" fill="#000000"/>	</g>	<g>		<path class="st0" d="M184,174H91V35h37.5V5H184V174z M109,156h57V23h-19.5v30H109V156z" fill="#000000"/>	</g></g></svg>