<svg xmlns="http://www.w3.org/2000/svg" xmlns:xlink="http://www.w3.org/1999/xlink" id="Layer_1" x="0px" y="0px" viewBox="0 0 69.517 42.005" xml:space="preserve"><g>	<g>		<path fill="#000000" d="M11.936,14.447c-0.313,0-0.621-0.147-0.816-0.421c-0.32-0.451-0.214-1.075,0.236-1.394l11.13-7.903   c1.969-1.397,4.503-1.755,6.778-0.954l0.846,0.297c0.171,0.06,0.356,0.052,0.518-0.026c0.163-0.078,0.286-0.215,0.346-0.387   c0.06-0.171,0.05-0.355-0.028-0.518c-0.079-0.163-0.215-0.286-0.386-0.346l-0.848-0.299c-2.69-0.945-5.685-0.522-8.011,1.129   L7.474,13.728c-0.451,0.319-1.075,0.214-1.394-0.236c-0.32-0.45-0.214-1.075,0.236-1.394L20.544,1.994   c2.856-2.026,6.532-2.543,9.833-1.384l0.849,0.299c0.673,0.237,1.215,0.722,1.524,1.367c0.309,0.645,0.349,1.372,0.111,2.046   c-0.237,0.676-0.724,1.218-1.369,1.527c-0.645,0.31-1.372,0.348-2.047,0.108l-0.844-0.297c-1.665-0.584-3.517-0.324-4.958,0.698   l-11.13,7.903C12.338,14.387,12.136,14.447,11.936,14.447z"/>	</g>	<g>		<path fill="#000000" d="M57.582,14.448c-0.2,0-0.402-0.06-0.578-0.185L45.873,6.359c-1.443-1.023-3.297-1.284-4.956-0.698   l-0.847,0.297c-0.673,0.237-1.4,0.2-2.044-0.109c-0.646-0.309-1.132-0.852-1.369-1.528c-0.237-0.673-0.198-1.4,0.111-2.045   c0.309-0.645,0.851-1.13,1.526-1.368l0.846-0.298c3.302-1.162,6.977-0.645,9.833,1.383l14.23,10.104   c0.45,0.32,0.556,0.944,0.236,1.394c-0.319,0.45-0.944,0.555-1.395,0.236L47.814,3.624c-2.327-1.652-5.323-2.074-8.012-1.127   l-0.846,0.298c-0.171,0.06-0.308,0.183-0.386,0.346c-0.078,0.163-0.088,0.347-0.028,0.517c0.061,0.173,0.183,0.31,0.346,0.388   c0.162,0.077,0.344,0.087,0.516,0.027l0.848-0.297c2.271-0.8,4.805-0.446,6.778,0.953l11.131,7.904   c0.45,0.32,0.556,0.944,0.236,1.395C58.204,14.301,57.895,14.448,57.582,14.448z"/>	</g>	<g>		<path fill="#000000" d="M4.513,24.524c-0.095,0-0.191-0.014-0.284-0.041l-2.045-0.606C0.898,23.496,0,22.294,0,20.952v-3.965   c0-1.342,0.898-2.544,2.184-2.925l1.27-0.376c0.53-0.154,1.086,0.146,1.243,0.675c0.048,0.165,0.053,0.332,0.02,0.489   c0.454,0.094,0.795,0.497,0.795,0.979v7.697c0,0.316-0.149,0.612-0.402,0.801C4.937,24.456,4.726,24.524,4.513,24.524z    M3.516,15.753l-0.764,0.227C2.309,16.11,2,16.525,2,16.987v3.965c0,0.462,0.309,0.876,0.752,1.007l0.761,0.226v-6.357   C3.513,15.803,3.514,15.778,3.516,15.753z"/>	</g>	<g>		<path fill="#000000" d="M65.004,24.524c-0.213,0-0.423-0.068-0.598-0.199c-0.253-0.189-0.402-0.486-0.402-0.801v-7.7   c0-0.476,0.333-0.875,0.779-0.976c-0.035-0.159-0.031-0.328,0.019-0.495c0.157-0.53,0.714-0.832,1.243-0.675l1.288,0.382   c1.286,0.381,2.184,1.583,2.184,2.925v3.965c0,1.342-0.898,2.544-2.185,2.925l-2.044,0.606   C65.195,24.511,65.099,24.524,65.004,24.524z M66.001,15.753c0.002,0.024,0.003,0.048,0.003,0.072v6.36l0.761-0.226   c0.443-0.131,0.752-0.545,0.752-1.007v-3.965c0-0.462-0.309-0.876-0.752-1.007L66.001,15.753z"/>	</g>	<g>		<path fill="#000000" d="M25.62,41.465c-0.339,0-0.678-0.024-1.014-0.072c-4.469-0.644-8.805-1.705-12.887-3.155   c-4.908-1.742-8.205-6.421-8.205-11.644V15.828c0-0.552,0.448-1,1-1c0.552,0,1,0.448,1,1v10.767c0,4.378,2.763,8.299,6.875,9.759   c3.958,1.406,8.165,2.435,12.503,3.06c0.833,0.119,1.69,0.032,2.48-0.253c0.517-0.187,1.092,0.081,1.28,0.601   c0.188,0.519-0.082,1.092-0.601,1.28C27.272,41.323,26.446,41.465,25.62,41.465z"/>	</g>	<g>		<path fill="#000000" d="M43.897,41.465c-0.827,0-1.652-0.143-2.43-0.424c-0.52-0.187-0.789-0.76-0.601-1.28   c0.187-0.519,0.763-0.788,1.28-0.601c0.803,0.289,1.639,0.374,2.48,0.253c4.338-0.625,8.545-1.654,12.503-3.06   c4.112-1.459,6.875-5.381,6.875-9.759v-10.77c0-0.552,0.448-1,1-1c0.552,0,1,0.448,1,1v10.77c0,5.222-3.297,9.901-8.206,11.644   c-4.082,1.45-8.418,2.511-12.887,3.155C44.575,41.441,44.236,41.465,43.897,41.465z"/>	</g>	<g>		<path fill="#000000" d="M34.759,18.866c-16.826,0-29.59-1.782-29.717-1.8c-1.461-0.205-2.482-1.562-2.277-3.024   c0.203-1.451,1.554-2.479,3.016-2.28c0.132,0.019,12.675,1.749,28.978,1.749c16.371,0,28.845-1.73,28.969-1.748   c1.468-0.193,2.82,0.825,3.025,2.278c0.204,1.464-0.818,2.82-2.279,3.025C64.349,17.084,51.632,18.866,34.759,18.866z    M5.421,13.738c-0.332,0-0.628,0.245-0.675,0.582c-0.025,0.18,0.021,0.358,0.13,0.503c0.108,0.144,0.267,0.237,0.446,0.263   c0.127,0.018,12.801,1.78,29.438,1.78c16.658,0,29.309-1.762,29.435-1.78c0.371-0.052,0.63-0.396,0.578-0.767   c-0.053-0.372-0.388-0.623-0.772-0.574c-0.118,0.017-12.705,1.767-29.241,1.767c-16.441,0-29.123-1.75-29.249-1.767   C5.48,13.74,5.45,13.738,5.421,13.738z"/>	</g>	<g>		<path fill="#000000" d="M40.32,42.005c-0.554,0-1.087-0.169-1.54-0.489c-1.728-1.219-2.978-3.014-3.52-5.054l-0.501-1.882   l-0.502,1.883c-0.542,2.039-1.792,3.833-3.519,5.052c-1.208,0.85-2.881,0.562-3.732-0.645c-0.85-1.206-0.561-2.879,0.645-3.731   c0.702-0.494,1.21-1.223,1.431-2.053l1.637-6.149c0.495-1.857,2.118-3.104,4.04-3.104c1.921,0,3.544,1.248,4.039,3.104   l1.637,6.149c0.221,0.83,0.729,1.559,1.43,2.054c1.207,0.852,1.496,2.525,0.646,3.731C42.01,41.581,41.191,42.005,40.32,42.005z    M34.759,27.833c-1.002,0-1.849,0.651-2.107,1.619l-1.637,6.149c-0.341,1.283-1.126,2.41-2.211,3.173   c-0.304,0.215-0.378,0.639-0.163,0.944c0.215,0.306,0.638,0.379,0.944,0.163c1.345-0.949,2.317-2.345,2.739-3.932l1.468-5.514   c0.117-0.438,0.513-0.743,0.966-0.743l0,0c0.453,0,0.85,0.305,0.966,0.743l1.467,5.512c0.422,1.588,1.395,2.985,2.74,3.934   c0.145,0.102,0.291,0.123,0.388,0.123c0.225,0,0.427-0.104,0.556-0.287c0.215-0.305,0.142-0.729-0.164-0.945   c-1.084-0.763-1.869-1.891-2.21-3.174l-1.637-6.148C36.607,28.484,35.761,27.833,34.759,27.833z"/>	</g></g></svg>