<svg xmlns="http://www.w3.org/2000/svg" xmlns:xlink="http://www.w3.org/1999/xlink" id="Layer_1" x="0px" y="0px" viewBox="0 0 53.985 56.402" xml:space="preserve"><g>	<g>		<g>			<g>				<path fill="#000000" d="M38.565,50.44c-0.547,0-0.994-0.44-1-0.989c-0.006-0.552,0.437-1.005,0.989-1.011     c6.837-0.076,11.082-0.326,13.003-0.468c0.227-0.017,0.398-0.205,0.398-0.438v-2.057c0-0.553,0.448-1,1-1s1,0.447,1,1v2.057     c0,1.271-0.989,2.338-2.251,2.432c-1.945,0.144-6.236,0.396-13.128,0.474C38.573,50.44,38.569,50.44,38.565,50.44z"/>			</g>			<g>				<g>					<path fill="#000000" d="M36.269,46.725c-0.552,0-1-0.447-1-0.999c0-0.553,0.447-1.001,0.999-1.001      c6.873-0.006,13.334-0.157,15.705-0.221c-0.05-0.82-0.281-2.092-1.151-3.131c-0.958-1.146-2.501-1.785-4.585-1.904      c-3.893-0.221-9.363-1.024-11.11-1.527c-1.363-0.391-2.213-1.381-2.165-2.521c0.008-0.179,0.781-17.459,2.316-32.524      c-8.733-1.642-16.545-0.571-18.99-0.152v4.354c0,0.553-0.448,1-1,1c-0.552,0-1-0.447-1-1V1.914      c0-0.471,0.328-0.877,0.787-0.978c0.412-0.09,10.212-2.17,21.495,0.177c0.502,0.105,0.844,0.573,0.791,1.084      c-1.592,15.211-2.394,33.131-2.401,33.31c-0.007,0.167,0.315,0.397,0.719,0.514c1.443,0.415,6.675,1.227,10.671,1.453      c2.67,0.151,4.697,1.039,6.023,2.638c1.956,2.358,1.591,5.369,1.575,5.496c-0.063,0.487-0.471,0.856-0.961,0.871      C52.906,46.48,44.91,46.718,36.269,46.725C36.269,46.725,36.269,46.725,36.269,46.725z"/>				</g>				<g>					<g>						<path fill="#000000" d="M34.363,37.406c-0.254,0-0.507-0.096-0.702-0.288c-0.484-0.478-0.726-1.066-0.699-1.698       c0.008-0.178,0.781-17.458,2.316-32.523c-8.733-1.642-16.545-0.571-18.99-0.152v4.354c0,0.553-0.448,1-1,1       c-0.552,0-1-0.447-1-1V1.914c0-0.471,0.328-0.877,0.787-0.978c0.412-0.09,10.212-2.17,21.495,0.177       c0.502,0.105,0.844,0.573,0.791,1.084c-1.592,15.211-2.394,33.131-2.401,33.31c-0.001,0.023-0.003,0.08,0.105,0.188       c0.394,0.388,0.397,1.021,0.01,1.414C34.879,37.306,34.621,37.406,34.363,37.406z"/>					</g>					<g>						<path fill="#000000" d="M36.269,46.725c-0.552,0-1-0.447-1-0.999c0-0.553,0.447-1.001,0.999-1.001       c6.873-0.006,13.334-0.157,15.705-0.221c-0.05-0.82-0.281-2.091-1.151-3.13c-0.958-1.146-2.5-1.786-4.585-1.905       c-0.808-0.045-1.674-0.115-2.554-0.202c-0.55-0.054-0.952-0.543-0.897-1.093s0.542-0.947,1.093-0.897       c0.851,0.083,1.689,0.151,2.471,0.196c2.671,0.151,4.697,1.039,6.024,2.639c1.956,2.358,1.591,5.368,1.574,5.495       c-0.063,0.487-0.471,0.856-0.961,0.871C52.906,46.48,44.91,46.718,36.269,46.725C36.269,46.725,36.269,46.725,36.269,46.725z"/>					</g>				</g>			</g>		</g>		<g>			<g>				<path fill="#000000" d="M20.065,56.402c-0.659,0-1.297-0.001-1.918-0.005c-1.151-0.006-2.088-0.948-2.088-2.102     c0-0.151-0.025-0.186-0.047-0.205c-0.031-0.029-0.07-0.036-0.114-0.037c-0.057,0.006-0.124,0.091-0.124,0.191     c0,0.568-0.223,1.101-0.629,1.499c-0.406,0.4-0.939,0.613-1.511,0.604c-5.531-0.099-9.083-0.309-10.708-0.426     c-1.381-0.1-2.462-1.261-2.462-2.645v-2.573c0-0.553,0.448-1,1-1c0.552,0,1,0.447,1,1v2.573c0,0.34,0.266,0.626,0.606,0.65     c1.604,0.115,5.116,0.323,10.6,0.42l0.105-0.103c0-1.12,0.85-2.078,1.935-2.182c0.599-0.062,1.203,0.142,1.649,0.548     c0.446,0.405,0.701,0.983,0.701,1.585c0,0.156,0.044,0.201,0.1,0.201c0.618,0.004,1.252,0.005,1.907,0.005     c9.207,0,14.731-0.308,17.204-0.49c0.227-0.017,0.398-0.205,0.398-0.438v-2.057c0-0.553,0.448-1,1-1c0.552,0,1,0.447,1,1v2.057     c0,1.271-0.988,2.338-2.25,2.432C34.916,56.091,29.337,56.402,20.065,56.402z"/>			</g>			<g>				<g>					<path fill="#000000" d="M21.615,52.668c-8.039,0-16.653-0.205-20.358-0.986c-0.462-0.098-0.793-0.506-0.793-0.979      c0-5.988,0.941-8.922,1.628-11.065c0.221-0.688,0.412-1.283,0.547-1.889c0.483-2.158-0.292-6.732-1.112-11.575      C0.776,21.747,0,17.169,0,13.499V7.853c0-0.471,0.328-0.877,0.787-0.977c0.412-0.088,10.212-2.167,21.495,0.178      c0.502,0.106,0.844,0.573,0.791,1.084c-1.592,15.21-2.394,33.13-2.402,33.309c-0.007,0.167,0.316,0.398,0.721,0.515      c1.442,0.414,6.675,1.226,10.67,1.453c2.67,0.151,4.696,1.039,6.023,2.638c1.956,2.358,1.591,5.368,1.574,5.495      c-0.063,0.487-0.471,0.855-0.961,0.871C38.072,52.436,30.17,52.668,21.615,52.668z M2.469,49.872      c7.601,1.218,30.277,0.702,35.214,0.572c-0.05-0.82-0.281-2.091-1.151-3.13c-0.958-1.146-2.5-1.785-4.584-1.904      c-3.892-0.222-9.361-1.025-11.11-1.527c-1.364-0.393-2.214-1.383-2.166-2.522c0.008-0.179,0.781-17.459,2.317-32.523      C12.274,7.198,4.448,8.266,2,8.683v4.816C2,17,2.761,21.496,3.498,25.841c0.892,5.261,1.661,9.805,1.093,12.347      c-0.155,0.692-0.369,1.357-0.595,2.062C3.347,42.272,2.548,44.763,2.469,49.872z"/>				</g>				<g>					<g>						<path fill="#000000" d="M20.074,43.345c-0.253,0-0.506-0.096-0.701-0.287c-0.485-0.476-0.727-1.062-0.701-1.697       c0.008-0.18,0.781-17.46,2.317-32.524C12.274,7.198,4.448,8.266,2,8.683v4.816c0,3.503,0.759,7.994,1.493,12.337       c0.509,3.011,0.99,5.854,1.189,8.208c0.046,0.55-0.362,1.034-0.913,1.08c-0.553,0.062-1.034-0.362-1.081-0.912       c-0.191-2.271-0.665-5.074-1.167-8.042C0.774,21.746,0,17.17,0,13.499V7.853c0-0.471,0.328-0.877,0.787-0.977       c0.412-0.088,10.212-2.167,21.495,0.178c0.502,0.106,0.844,0.573,0.791,1.084c-1.592,15.21-2.394,33.13-2.402,33.309       c-0.001,0.022-0.003,0.08,0.104,0.187c0.394,0.387,0.4,1.02,0.013,1.414C20.592,43.246,20.333,43.345,20.074,43.345z"/>					</g>					<g>						<path fill="#000000" d="M21.615,52.668c-8.039,0-16.654-0.205-20.359-0.986c-0.462-0.098-0.793-0.506-0.793-0.979       c0-3.048,0.243-5.63,0.741-7.892c0.119-0.539,0.649-0.88,1.192-0.762c0.539,0.119,0.88,0.652,0.761,1.191       c-0.422,1.914-0.648,4.09-0.688,6.63c7.601,1.217,30.277,0.702,35.214,0.572c-0.05-0.82-0.281-2.091-1.151-3.13       c-0.958-1.146-2.5-1.785-4.584-1.904c-0.809-0.046-1.674-0.116-2.553-0.202c-0.55-0.053-0.952-0.542-0.899-1.092       c0.053-0.55,0.531-0.949,1.092-0.898c0.852,0.082,1.691,0.15,2.474,0.196c2.669,0.151,4.695,1.039,6.022,2.638       c1.956,2.358,1.591,5.368,1.574,5.495c-0.063,0.487-0.471,0.855-0.961,0.871C38.072,52.436,30.17,52.668,21.615,52.668z"/>					</g>				</g>			</g>		</g>	</g></g></svg>