<svg xmlns="http://www.w3.org/2000/svg" xmlns:xlink="http://www.w3.org/1999/xlink" id="Layer_1" x="0px" y="0px" viewBox="0 0 48.719 63.45" xml:space="preserve"><g>	<g>		<path fill="#000000" d="M43.92,59.796H25.13c-0.553,0-1-0.448-1-1v-1.525c0-0.552,0.447-1,1-1s1,0.448,1,1v0.525h16.79v-8.512   c0-0.354,0.188-0.683,0.494-0.862c2.038-1.197,3.305-3.407,3.305-5.769V28.424c0-0.552,0.447-1,1-1c0.553,0,1,0.448,1,1v14.229   c0,2.873-1.441,5.573-3.799,7.181v8.962C44.92,59.348,44.473,59.796,43.92,59.796z"/>	</g>	<g>		<path fill="#000000" d="M43.297,63.45H25.753c-1.559,0-2.826-1.268-2.826-2.827c0-1.559,1.268-2.826,2.826-2.826h17.544   c1.559,0,2.826,1.268,2.826,2.826C46.123,62.181,44.855,63.45,43.297,63.45z M25.753,59.797c-0.455,0-0.826,0.371-0.826,0.826   c0,0.456,0.371,0.827,0.826,0.827h17.544c0.455,0,0.826-0.371,0.826-0.827c0-0.455-0.371-0.826-0.826-0.826H25.753z"/>	</g>	<g>		<path fill="#000000" d="M43.08,42.541c-0.119,0-0.237-0.006-0.356-0.02l-2.416-0.271c-2.987-0.336-6.021-0.364-9.017-0.089   c-0.561,0.053-1.037-0.354-1.088-0.904c-0.051-0.55,0.355-1.037,0.904-1.087c3.129-0.291,6.3-0.259,9.423,0.093l2.416,0.271   c0.347,0.035,0.68-0.068,0.939-0.3c0.26-0.232,0.402-0.552,0.402-0.9v-4.04c0-0.615-0.461-1.131-1.072-1.2l-2.908-0.326   c-2.676-0.3-5.398-0.356-8.091-0.164c-0.566,0.036-1.03-0.376-1.068-0.926c-0.04-0.551,0.375-1.029,0.926-1.069   c2.812-0.199,5.658-0.143,8.456,0.172l2.908,0.326c1.624,0.182,2.85,1.552,2.85,3.187v4.04c0,0.912-0.39,1.783-1.069,2.391   C44.628,42.253,43.864,42.541,43.08,42.541z"/>	</g>	<g>		<path fill="#000000" d="M28.347,54.618c-0.553,0-1-0.448-1-1v-9.512c0-0.354,0.188-0.683,0.494-0.862   c2.038-1.197,3.305-3.407,3.305-5.769V23.245c0-0.552,0.447-1,1-1s1,0.448,1,1v14.229c0,2.873-1.441,5.572-3.799,7.181v8.962   C29.347,54.17,28.899,54.618,28.347,54.618z"/>	</g>	<g>		<path fill="#000000" d="M9.557,54.618c-0.553,0-1-0.448-1-1V44.34c-1.566-0.927-2.859-2.229-3.765-3.796l-3.643-6.309   C0.397,32.932,0,31.448,0,29.945V23.69c0-1.91,1.554-3.463,3.463-3.463c1.704,0,3.125,1.237,3.41,2.861   c0.075-0.478,0.489-0.844,0.988-0.844c0.553,0,1,0.448,1,1v4.994c0,0.815-0.529,1.504-1.316,1.715   c-0.786,0.21-1.59-0.123-1.997-0.827L5.06,28.281c-0.088-0.152-0.134-0.324-0.134-0.5v-4.09c0-0.807-0.656-1.463-1.463-1.463   C2.656,22.227,2,22.884,2,23.69v6.254c0,1.153,0.305,2.291,0.882,3.291l3.643,6.308c0.814,1.411,2.023,2.559,3.492,3.319   c0.332,0.172,0.54,0.515,0.54,0.888v9.866C10.557,54.17,10.109,54.618,9.557,54.618z"/>	</g>	<g>		<path fill="#000000" d="M27.724,58.271H10.18c-1.559,0-2.826-1.268-2.826-2.827c0-1.559,1.268-2.827,2.826-2.827h17.544   c1.559,0,2.827,1.268,2.827,2.827C30.551,57.003,29.282,58.271,27.724,58.271z M10.18,54.618c-0.455,0-0.826,0.371-0.826,0.827   c0,0.456,0.371,0.827,0.826,0.827h17.544c0.456,0,0.827-0.371,0.827-0.827c0-0.456-0.371-0.827-0.827-0.827H10.18z"/>	</g>	<g>		<path fill="#000000" d="M18.146,44.384c-0.071,0-0.143-0.003-0.214-0.007c-2.556-0.173-5.264-1.062-6.899-2.265   c-2.053-1.51-2.484-4.767-2.538-9.883c-0.007-0.731,0.353-1.408,0.963-1.812c0.592-0.392,1.327-0.458,1.97-0.178   c2.955,1.286,7.73,6.247,9.461,9.829c0.467,0.966,0.384,2.077-0.221,2.971C20.092,43.891,19.16,44.384,18.146,44.384z    M10.607,32.067c-0.011,0-0.024,0.004-0.045,0.017c-0.021,0.014-0.068,0.053-0.067,0.125c0.044,4.249,0.354,7.285,1.724,8.292   c1.329,0.978,3.68,1.734,5.849,1.881c0.389,0.026,0.731-0.148,0.943-0.463c0.097-0.143,0.298-0.525,0.077-0.981   c-1.512-3.129-5.939-7.768-8.459-8.865l0,0C10.624,32.07,10.617,32.067,10.607,32.067z"/>	</g>	<g>		<path fill="#000000" d="M27.224,40.181c-0.567,0-1.125-0.2-1.58-0.587L12.706,28.573l0,0c-0.517-0.44-0.717-1.142-0.51-1.788   c0.207-0.644,0.775-1.097,1.449-1.154c1.707-0.144,4.128-0.316,5.968-0.316c1.21,0,3.08,0.137,5.559,0.407   c2.69,0.293,4.681,2.555,4.63,5.262l-0.127,6.795c-0.018,0.955-0.569,1.792-1.439,2.184   C27.908,40.109,27.564,40.181,27.224,40.181z M14.601,27.559l12.34,10.512c0.188,0.161,0.378,0.112,0.473,0.067   c0.096-0.043,0.258-0.152,0.262-0.397l0.127-6.795c0.031-1.665-1.192-3.056-2.847-3.236c-2.372-0.258-4.22-0.395-5.342-0.395   C18.106,27.315,16.171,27.436,14.601,27.559z M14.003,27.051l0.001,0.001C14.004,27.051,14.004,27.051,14.003,27.051   L14.003,27.051z"/>	</g>	<g>		<path fill="#000000" d="M7.861,27.561c-0.553,0-1-0.448-1-1V7.756c0-1.194,0.524-2.32,1.438-3.089   c0.914-0.769,2.122-1.09,3.312-0.885c1.894,0.329,3.321,2.111,3.321,4.146v15.196c0,0.552-0.447,1-1,1c-0.553,0-1-0.448-1-1V7.928   c0-1.075-0.715-2.01-1.663-2.175c-0.615-0.107-1.214,0.05-1.682,0.444C9.126,6.586,8.861,7.154,8.861,7.756v18.805   C8.861,27.114,8.414,27.561,7.861,27.561z"/>	</g>	<g>		<path fill="#000000" d="M13.933,24.124c-0.553,0-1-0.448-1-1V4.036c0-1.102,0.459-2.169,1.258-2.928   c0.812-0.77,1.881-1.163,2.993-1.102c2.142,0.112,3.82,1.958,3.82,4.202l-0.001,17.579c0,0.552-0.448,1-1,1l0,0   c-0.553,0-1-0.448-1-1l0.001-17.579c0-1.16-0.863-2.149-1.926-2.205c-0.575-0.033-1.103,0.168-1.511,0.556   c-0.409,0.389-0.635,0.913-0.635,1.477v19.088C14.933,23.677,14.485,24.124,13.933,24.124z"/>	</g>	<g>		<path fill="#000000" d="M26.074,23.685c-0.553,0-1-0.448-1-1V5.791c0-1.122-0.913-2.035-2.035-2.035   c-1.123,0-2.036,0.913-2.036,2.035v15.995c0,0.552-0.447,1-1,1c-0.553,0-1-0.448-1-1V5.791c0-2.225,1.811-4.035,4.036-4.035   c2.225,0,4.035,1.81,4.035,4.035v16.894C27.074,23.238,26.627,23.685,26.074,23.685z"/>	</g>	<g>		<path fill="#000000" d="M32.146,27.561c-0.553,0-1-0.448-1-1v-14.75c0-0.564-0.226-1.088-0.635-1.477   C30.102,9.947,29.575,9.748,29,9.778c-1.062,0.056-1.926,1.044-1.926,2.205v10.703c0,0.552-0.447,1-1,1c-0.553,0-1-0.448-1-1   V11.983c0-2.244,1.679-4.089,3.82-4.202c1.114-0.062,2.182,0.332,2.993,1.102c0.799,0.759,1.258,1.826,1.258,2.928v14.75   C33.146,27.114,32.698,27.561,32.146,27.561z"/>	</g>	<g>		<path fill="#000000" d="M35.576,26.83c-0.553,0-1-0.448-1-1V8.251c0-1.16-0.863-2.149-1.925-2.205   c-0.551-0.032-1.103,0.168-1.512,0.556c-0.409,0.389-0.635,0.913-0.635,1.477v0.725c0,0.552-0.447,1-1,1s-1-0.448-1-1V8.079   c0-1.102,0.458-2.169,1.258-2.927c0.81-0.77,1.878-1.161,2.993-1.103c2.143,0.112,3.82,1.957,3.82,4.202V25.83   C36.576,26.382,36.129,26.83,35.576,26.83z"/>	</g>	<g>		<path fill="#000000" d="M41.647,27.729c-0.553,0-1-0.448-1-1V9.835c0-1.122-0.913-2.036-2.036-2.036   c-1.122,0-2.035,0.913-2.035,2.036V25.83c0,0.552-0.447,1-1,1c-0.553,0-1-0.448-1-1V9.835c0-2.225,1.811-4.036,4.035-4.036   c2.226,0,4.036,1.811,4.036,4.036v16.894C42.647,27.281,42.2,27.729,41.647,27.729z"/>	</g>	<g>		<path fill="#000000" d="M47.719,31.605c-0.553,0-1-0.448-1-1V15.854c0-0.563-0.226-1.088-0.635-1.477   c-0.409-0.389-0.947-0.589-1.513-0.556c-1.061,0.056-1.924,1.044-1.924,2.205v10.703c0,0.552-0.447,1-1,1c-0.553,0-1-0.448-1-1   V16.026c0-2.244,1.678-4.09,3.819-4.202c1.124-0.062,2.184,0.333,2.994,1.103c0.8,0.758,1.258,1.825,1.258,2.927v14.751   C48.719,31.157,48.271,31.605,47.719,31.605z"/>	</g></g></svg>