<svg xmlns="http://www.w3.org/2000/svg" xmlns:xlink="http://www.w3.org/1999/xlink" id="Layer_1" x="0px" y="0px" viewBox="0 0 52.658 53.696" xml:space="preserve"><g>	<g>		<path fill="#000000" d="M5.092,53.696H1.496c-0.552,0-1-0.448-1-1V37.805c0-0.552,0.448-1,1-1c0.552,0,1,0.448,1,1v13.891h1.596   V41.57c0-0.552,0.448-1,1-1c0.552,0,1,0.448,1,1v11.126C6.092,53.249,5.644,53.696,5.092,53.696z"/>	</g>	<g>		<path fill="#000000" d="M51.162,53.696h-3.596c-0.552,0-1-0.448-1-1V41.57c0-0.552,0.448-1,1-1c0.552,0,1,0.448,1,1v10.126h1.596   V37.762c0-0.552,0.448-1,1-1c0.552,0,1,0.448,1,1v14.935C52.162,53.249,51.714,53.696,51.162,53.696z"/>	</g>	<g>		<path fill="#000000" d="M26.329,47.555C11.565,47.555,0,42.302,0,35.597c0-0.552,0.448-1,1-1c0.552,0,1,0.448,1,1   c0,5.398,11.142,9.958,24.329,9.958s24.329-4.56,24.329-9.958c0-0.552,0.448-1,1-1c0.552,0,1,0.448,1,1   C52.658,42.302,41.093,47.555,26.329,47.555z"/>	</g>	<g>		<path fill="#000000" d="M16.731,5.153c-0.459,0-0.873-0.317-0.976-0.784c-0.119-0.539,0.222-1.073,0.761-1.192l5.903-1.305   c0.535-0.118,1.084-0.213,1.63-0.283c0.551-0.066,1.049,0.319,1.118,0.866c0.069,0.548-0.318,1.048-0.866,1.118   c-0.486,0.062-0.974,0.146-1.45,0.252l-5.903,1.305C16.875,5.146,16.802,5.153,16.731,5.153z"/>	</g>	<g>		<path fill="#000000" d="M35.927,5.153c-0.071,0-0.144-0.007-0.217-0.024l-5.903-1.305c-0.476-0.105-0.963-0.19-1.45-0.252   c-0.548-0.07-0.936-0.57-0.866-1.118c0.07-0.547,0.57-0.931,1.118-0.866c0.546,0.069,1.094,0.165,1.629,0.283l5.903,1.305   c0.539,0.119,0.88,0.653,0.761,1.192C36.8,4.835,36.386,5.153,35.927,5.153z"/>	</g>	<g>		<path fill="#000000" d="M26.329,38.805c-16.116,0-25.186-2.144-25.564-2.236c-0.496-0.12-0.822-0.594-0.757-1.101l2.188-16.873   c0.78-6.014,4.489-11.212,9.921-13.904c0.494-0.246,1.095-0.043,1.34,0.452s0.043,1.095-0.452,1.34   C8.173,8.878,4.874,13.502,4.18,18.852L2.11,34.812c2.642,0.528,11.156,1.994,24.219,1.994c13.063,0,21.577-1.466,24.219-1.994   l-2.07-15.959c-0.694-5.35-3.993-9.974-8.826-12.369c-0.495-0.245-0.697-0.845-0.452-1.34c0.245-0.495,0.846-0.697,1.34-0.452   c5.433,2.692,9.141,7.89,9.921,13.904l2.189,16.873c0.065,0.506-0.261,0.98-0.757,1.101   C51.515,36.661,42.446,38.805,26.329,38.805z"/>	</g>	<g>		<path fill="#000000" d="M27.266,31.875h-1.873c-1.223,0-2.217-0.995-2.217-2.217V2.217C23.175,0.995,24.17,0,25.393,0h1.873   c1.223,0,2.217,0.995,2.217,2.217v27.441C29.483,30.88,28.488,31.875,27.266,31.875z M25.393,2c-0.12,0-0.217,0.098-0.217,0.217   v27.441c0,0.12,0.098,0.217,0.217,0.217h1.873c0.12,0,0.217-0.098,0.217-0.217V2.217c0-0.12-0.098-0.217-0.217-0.217H25.393z"/>	</g>	<g>		<path fill="#000000" d="M15.706,31.875h-1.979c-1.194,0-2.165-0.971-2.165-2.164V4.693c0-1.193,0.971-2.164,2.165-2.164h1.979   c1.193,0,2.165,0.971,2.165,2.164v25.017C17.87,30.904,16.899,31.875,15.706,31.875z M13.727,4.529   c-0.091,0-0.165,0.074-0.165,0.164v25.017c0,0.091,0.074,0.164,0.165,0.164h1.979c0.091,0,0.165-0.074,0.165-0.164V4.693   c0-0.091-0.074-0.164-0.165-0.164H13.727z"/>	</g>	<g>		<path fill="#000000" d="M38.931,31.875h-1.979c-1.193,0-2.164-0.971-2.164-2.164V4.693c0-1.193,0.971-2.164,2.164-2.164h1.979   c1.194,0,2.165,0.971,2.165,2.164v25.017C41.096,30.904,40.125,31.875,38.931,31.875z M36.953,4.529   c-0.091,0-0.164,0.074-0.164,0.164v25.017c0,0.091,0.074,0.164,0.164,0.164h1.979c0.091,0,0.165-0.074,0.165-0.164V4.693   c0-0.091-0.074-0.164-0.165-0.164H36.953z"/>	</g></g></svg>