<?xml version="1.0" standalone="no"?>
<!DOCTYPE svg PUBLIC "-//W3C//DTD SVG 20010904//EN"
 "http://www.w3.org/TR/2001/REC-SVG-20010904/DTD/svg10.dtd">
<svg version="1.0" xmlns="http://www.w3.org/2000/svg"
 width="512.000000pt" height="512.000000pt" viewBox="0 0 512.000000 512.000000"
 preserveAspectRatio="xMidYMid meet">

<g transform="translate(0.000000,512.000000) scale(0.100000,-0.100000)"
fill="#000000" stroke="none">
<path d="M2445 4065 c-101 -23 -1116 -344 -1172 -371 -77 -37 -148 -98 -200
-173 -26 -36 -48 -68 -49 -70 -2 -2 -49 9 -106 23 -188 48 -347 32 -518 -52
-180 -88 -320 -261 -370 -458 -69 -267 37 -577 251 -740 30 -23 272 -164 539
-314 l485 -273 107 -108 c284 -284 585 -431 978 -480 113 -14 330 -6 448 15
337 62 617 211 864 461 l103 104 340 192 c610 344 675 382 737 438 249 226
309 601 141 891 -79 136 -244 271 -390 319 -146 49 -277 50 -441 4 -51 -14
-94 -24 -96 -22 -1 2 -17 28 -35 56 -42 67 -121 140 -197 180 -60 32 -1068
351 -1194 379 -80 17 -146 17 -225 -1z m777 -278 c326 -102 578 -187 605 -203
110 -64 192 -186 214 -318 17 -103 6 -762 -15 -884 -97 -558 -509 -1020 -1052
-1177 -158 -46 -269 -58 -464 -52 -238 8 -396 45 -596 142 -426 206 -731 607
-820 1080 -21 112 -33 780 -15 891 20 130 102 253 213 318 27 16 270 97 573
192 290 90 548 171 573 179 32 10 76 14 137 11 84 -3 128 -16 647 -179z
m-2403 -397 c28 -5 76 -17 107 -26 l55 -16 -7 -61 c-4 -34 -8 -64 -10 -66 -2
-2 -40 7 -86 19 -66 18 -102 21 -178 18 -85 -3 -104 -8 -173 -41 -305 -144
-372 -540 -132 -772 50 -49 119 -92 372 -234 l310 -174 52 -104 c45 -90 48
-102 29 -92 -130 69 -774 439 -810 466 -147 107 -238 291 -238 480 0 110 14
172 62 273 113 238 390 379 647 330z m3726 -5 c113 -29 203 -81 290 -169 124
-124 175 -248 176 -422 1 -153 -49 -290 -146 -401 -67 -76 -105 -101 -525
-338 -212 -120 -388 -219 -392 -222 -5 -2 15 42 42 99 l51 103 312 176 c250
141 324 188 373 235 96 93 144 205 144 339 -1 85 -13 140 -46 212 -31 64 -121
164 -179 198 -121 72 -269 88 -404 47 -79 -25 -91 -22 -91 24 0 12 -3 35 -6
52 -6 30 -6 31 62 51 38 11 80 22 94 24 59 10 190 6 245 -8z m-3655 -258 l75
-23 1 -294 c1 -301 10 -403 44 -540 11 -41 18 -75 17 -77 -2 -1 -117 62 -257
141 -281 158 -334 200 -377 293 -38 82 -44 205 -13 286 59 156 208 254 370
242 36 -2 99 -15 140 -28z m3666 -7 c79 -39 155 -119 185 -198 56 -146 7 -334
-112 -425 -35 -26 -531 -308 -536 -304 -1 2 6 36 17 77 34 137 43 239 44 539
l1 294 25 9 c154 57 272 59 376 8z"/>
<path d="M2410 3591 c-155 -44 -626 -194 -637 -203 -16 -13 -17 -60 -1 -76 7
-7 23 -12 35 -12 22 0 285 79 558 167 91 29 125 36 195 35 80 0 106 -6 407
-101 177 -56 333 -101 347 -101 16 0 32 9 42 25 34 53 18 61 -347 175 -318 99
-339 104 -434 107 -74 2 -117 -2 -165 -16z"/>
<path d="M2455 3184 c-116 -30 -674 -210 -687 -222 -34 -29 -12 -85 33 -84 13
0 170 46 349 102 434 136 387 136 816 1 177 -55 333 -101 348 -101 16 0 31 9
42 25 34 53 18 61 -347 175 -320 100 -338 104 -434 106 -55 2 -109 0 -120 -2z"/>
</g>
</svg>
