<svg xmlns="http://www.w3.org/2000/svg" viewBox="0 0 512 512" id="safety-equipment">
  <path d="M456.1 456H192v-29.4h264.1V456zM55.9 240H192v28H55.9v-28zM216 135l41.7-79H296v24.6c0 32.5 24.5 59.3 56 63V216H216v-81zm64 169.3 2.6 29c.6 6.6 6.4 11.5 13 10.9 6.6-.6 11.5-6.4 10.9-13l-4.3-48.7h43.7l-10.7 120h-22.3l-2.7-30.2c-.6-6.6-6.4-11.5-13-10.9-6.6.6-11.5 6.4-10.9 13l2.5 28.1h-72.1v-.3c0-43.5 26-81.1 63.3-97.9zm119.9 22.1c20.1 20.1 31.4 47.4 31.4 75.9v.3h-72.1l8.8-98.3c11.8 5.3 22.6 12.8 31.9 22.1zm68.2 76.2h-12.7v-.3c0-34.8-13.8-68.3-38.5-92.9-13.4-13.4-29.3-23.5-46.6-30.1l.7-7.7c.3-3.4-.8-6.7-3.1-9.2-2.3-2.5-5.5-3.9-8.9-3.9h-70c-3.4 0-6.6 1.4-8.9 3.9-2.3 2.5-3.4 5.8-3.1 9.2l.7 7.7c-25.2 9.5-46.7 26.5-61.8 48.2V240H364c6.6 0 12-5.4 12-12v-96c0-6.6-5.4-12-12-12h-4.6c-21.8 0-39.4-17.7-39.4-39.4V44c0-6.6-5.4-12-12-12h-57.5c-4.4-.1-8.6 2.3-10.8 6.4L204 106.2l-35.8-67.9c-2.2-4.2-6.5-6.5-10.9-6.4H100c-6.6 0-12 5.4-12 12s5.4 12 12 12h50.4l41.7 79V216H55.9v-72.5c28.5-3.3 51.3-25.6 55.4-53.9.9-6.6-3.6-12.7-10.2-13.6-6.6-.9-12.7 3.6-13.6 10.2-2.8 19.1-19.2 33.7-39 33.7h-4.6c-6.6 0-12 5.4-12 12V396c0 6.6 5.4 12 12 12h92c6.6 0 12-5.4 12-12s-5.4-12-12-12h-80v-92H192v110.6h-12c-6.6 0-12 5.4-12 12V468c0 6.6 5.4 12 12 12h288.1c6.6 0 12-5.4 12-12v-53.4c0-6.6-5.4-12-12-12z"></path>
</svg>
