<svg id="visual" viewBox="0 0 900 600" width="900" height="600" xmlns="http://www.w3.org/2000/svg" xmlns:xlink="http://www.w3.org/1999/xlink" version="1.1"><rect width="900" height="600" fill="#282828"></rect><g><g transform="translate(307 331)"><path d="M0 -100.4L86.9 -50.2L86.9 50.2L0 100.4L-86.9 50.2L-86.9 -50.2Z" fill="#fff"></path></g><g transform="translate(531 257)"><path d="M0 -85L73.6 -42.5L73.6 42.5L0 85L-73.6 42.5L-73.6 -42.5Z" fill="#fff"></path></g><g transform="translate(684 123)"><path d="M0 -69L59.8 -34.5L59.8 34.5L0 69L-59.8 34.5L-59.8 -34.5Z" fill="#fff"></path></g><g transform="translate(658 547)"><path d="M0 -69L59.8 -34.5L59.8 34.5L0 69L-59.8 34.5L-59.8 -34.5Z" fill="#fff"></path></g><g transform="translate(127 586)"><path d="M0 -88L76.2 -44L76.2 44L0 88L-76.2 44L-76.2 -44Z" fill="#fff"></path></g><g transform="translate(317 87)"><path d="M0 -75L65 -37.5L65 37.5L0 75L-65 37.5L-65 -37.5Z" fill="#fff"></path></g><g transform="translate(813 345)"><path d="M0 -66L57.2 -33L57.2 33L0 66L-57.2 33L-57.2 -33Z" fill="#fff"></path></g></g></svg>